<svg xmlns="http://www.w3.org/2000/svg" version="1.1" xmlns:xlink="http://www.w3.org/1999/xlink" xmlns:svgjs="http://svgjs.com/svgjs" width="45" height="45" x="0" y="0" viewBox="0 0 64 64" style="enable-background:new 0 0 512 512" xml:space="preserve" class="">
    <g>
        <path xmlns="http://www.w3.org/2000/svg" d="m29.03 5c.552 0 1-.447 1-1s-.448-1-1-1h-.01c-.552 0-.994.447-.994 1s.452 1 1.004 1z" fill="#fe4956" data-original="#000000" class=""></path>
        <path xmlns="http://www.w3.org/2000/svg" d="m32 5h3c.553 0 1-.447 1-1s-.447-1-1-1h-3c-.553 0-1 .447-1 1s.447 1 1 1z" fill="#fe4956" data-original="#000000" class=""></path>
        <path xmlns="http://www.w3.org/2000/svg" d="m44.013.003c-.004 0-.008-.003-.013-.003h-24c-3.309 0-6 2.691-6 6v51c0 3.859 3.141 7 7 7h22c3.859 0 7-3.141 7-7v-50.998c0-3.305-2.685-5.992-5.987-5.999zm-24.013 1.997h23.99c.004 0 .006.002.01.002 2.206 0 4 1.794 4 4h-32v-.002c0-2.206 1.794-4 4-4zm23 56h-11-11c-2.757 0-5-2.243-5-5v-1h16 16v1c0 2.757-2.243 5-5 5zm-27-49.998h32v41.998h-32zm27 53.998h-22c-2.418 0-4.438-1.726-4.9-4.01 1.264 1.241 2.994 2.01 4.9 2.01h22c1.906 0 3.636-.769 4.9-2.01-.462 2.284-2.482 4.01-4.9 4.01z" fill="#fe4956" data-original="#000000" class=""></path>
        <path xmlns="http://www.w3.org/2000/svg" d="m35 55c0-1.654-1.346-3-3-3s-3 1.346-3 3 1.346 3 3 3 3-1.346 3-3zm-3 1c-.552 0-1-.448-1-1s.448-1 1-1 1 .448 1 1-.448 1-1 1z" fill="#fe4956" data-original="#000000" class=""></path>
        <path xmlns="http://www.w3.org/2000/svg" d="m41 14.998h-18c-2.757 0-5 2.243-5 5v18c0 2.757 2.243 5 5 5h18c2.757 0 5-2.243 5-5v-18c0-2.757-2.243-5-5-5zm3 23c0 1.654-1.346 3-3 3h-18c-1.654 0-3-1.346-3-3v-18c0-1.654 1.346-3 3-3h18c1.654 0 3 1.346 3 3z" fill="#fe4956" data-original="#000000" class=""></path>
        <path xmlns="http://www.w3.org/2000/svg" d="m41.976 34.89c-.008-.067-.018-.131-.039-.196-.022-.066-.054-.126-.089-.186-.02-.033-.025-.071-.049-.104l-6.003-8c-.03-.041-.074-.063-.109-.097-.032-.033-.053-.074-.091-.103-.016-.012-.034-.014-.051-.024-.06-.04-.124-.064-.19-.09-.057-.022-.11-.048-.169-.059-.063-.013-.123-.01-.187-.01-.065 0-.129-.003-.194.01-.058.012-.111.036-.168.059-.065.025-.128.05-.188.089-.018.012-.037.013-.054.025-.041.03-.063.074-.098.109-.032.032-.073.053-.102.091l-2.701 3.604-1.202-1.604c-.031-.041-.075-.063-.11-.099-.033-.032-.053-.073-.091-.102-.015-.012-.033-.013-.049-.023-.063-.042-.13-.068-.2-.095-.053-.02-.102-.044-.156-.055-.068-.014-.135-.011-.204-.01-.061 0-.118-.003-.177.009-.061.012-.116.037-.175.061-.065.025-.128.05-.188.09-.016.01-.034.012-.05.023-.038.028-.059.069-.091.102-.036.035-.08.058-.11.099l-4.498 6c-.023.031-.029.068-.049.102-.035.06-.066.119-.089.187-.021.065-.032.131-.04.199-.004.038-.022.072-.022.112 0 .024.012.044.014.067.005.07.021.135.041.202.017.061.032.118.061.174.026.054.063.101.101.149.043.058.086.11.14.157.018.015.026.036.045.05.041.031.088.045.132.069.039.021.073.044.115.06.114.044.232.071.352.071h.001 4.005 1.995 10.005.001c.119 0 .237-.027.352-.071.041-.016.075-.038.113-.059.045-.024.093-.039.135-.07.02-.015.028-.036.046-.052.053-.045.094-.098.136-.152.038-.05.076-.098.104-.153.027-.055.043-.113.061-.174.019-.066.035-.131.04-.2.002-.023.014-.044.014-.068-.003-.04-.022-.074-.026-.114zm-10.978-.885 3.998-5.333 4.002 5.333zm-2.499 0h-1.506l2.5-3.334.753 1.004z" fill="#fe4956" data-original="#000000" class=""></path>
        <path xmlns="http://www.w3.org/2000/svg" d="m26.496 26.999c1.377 0 2.498-1.121 2.498-2.498s-1.121-2.498-2.498-2.498-2.498 1.121-2.498 2.498 1.121 2.498 2.498 2.498zm0-2.996c.274 0 .498.224.498.498s-.224.498-.498.498-.498-.224-.498-.498.224-.498.498-.498z" fill="#fe4956" data-original="#000000" class=""></path>
    </g>
</svg>